<svg xmlns="http://www.w3.org/2000/svg" viewBox="0 0 1200 630" width="1200" height="630" role="img" aria-label="Firebase">
	<defs>
		<linearGradient id="bg" x1="0%" y1="0%" x2="100%" y2="100%">
			<stop offset="0%" stop-color="#0b1020"/>
			<stop offset="50%" stop-color="#161c3d"/>
			<stop offset="100%" stop-color="#0b1020"/>
		</linearGradient>
		<radialGradient id="halo" cx="50%" cy="42%" r="62%">
			<stop offset="0%" stop-color="#fbbf24" stop-opacity="0.30"/>
			<stop offset="60%" stop-color="#fbbf24" stop-opacity="0.07"/>
			<stop offset="100%" stop-color="#fbbf24" stop-opacity="0"/>
		</radialGradient>
		<pattern id="grid" width="40" height="40" patternUnits="userSpaceOnUse">
			<path d="M40 0H0v40" fill="none" stroke="#ffffff" stroke-opacity="0.045" stroke-width="1"/>
		</pattern>
		<filter id="glow" x="-40%" y="-40%" width="180%" height="180%">
			<feGaussianBlur stdDeviation="7" result="b"/>
			<feMerge><feMergeNode in="b"/><feMergeNode in="SourceGraphic"/></feMerge>
		</filter>
	</defs>

	<rect width="1200" height="630" fill="url(#bg)"/>
	<rect width="1200" height="630" fill="url(#grid)"/>
	<rect width="1200" height="630" fill="url(#halo)"/>
	<rect x="0" y="0" width="1200" height="6" fill="#fbbf24" opacity="0.85"/>

	<path d="M600 110C640 170 700 210 700 290C700 350 655 395 600 395C545 395 500 350 500 290C500 245 525 215 545 190C548 230 565 250 585 258C575 205 585 150 600 110Z" fill="#0d1428" stroke="#fbbf24" stroke-width="5" stroke-linejoin="round" filter="url(#glow)"/>
	<path d="M600 250C625 280 645 300 645 330C645 358 625 378 600 378C575 378 555 358 555 330C555 305 575 290 600 250Z" fill="#fbbf24" opacity="0.85"/>
	<circle cx="420" cy="250" r="10" fill="#fbbf24" opacity="0.5"/>
	<circle cx="780" cy="230" r="8" fill="#fbbf24" opacity="0.4"/>
	<circle cx="760" cy="340" r="12" fill="#fbbf24" opacity="0.3"/>
	<circle cx="445" cy="345" r="7" fill="#fbbf24" opacity="0.35"/>

	<text x="600" y="506" text-anchor="middle" font-family="Inter, 'Segoe UI', 'Helvetica Neue', Arial, sans-serif" font-size="66" font-weight="700" fill="#f8fafc" letter-spacing="-1.5">Firebase</text>
	<text x="600" y="556" text-anchor="middle" font-family="Inter, 'Segoe UI', 'Helvetica Neue', Arial, sans-serif" font-size="27" font-weight="500" fill="#fbbf24" opacity="0.95">FCM push and Firestore for .NET MAUI</text>
	<text x="600" y="598" text-anchor="middle" font-family="ui-monospace, 'SF Mono', Menlo, Consolas, monospace" font-size="19" fill="#94a3b8" opacity="0.75">shinyorg/firebase</text>
</svg>
